<?xml version="1.0" encoding="UTF-8"?><svg id="a" xmlns="http://www.w3.org/2000/svg" viewBox="0 0 887.35 800.5"><defs><style>.b{fill:blue;}.c{letter-spacing:-.02em;}.d{letter-spacing:-.02em;}.e{letter-spacing:-.02em;}.f{letter-spacing:0em;}.g{letter-spacing:-.02em;}.h{letter-spacing:0em;}.i{letter-spacing:-.03em;}.j{stroke:#b3b3b3;}.j,.k{stroke-width:2px;}.j,.k,.l{fill:none;stroke-miterlimit:10;}.k,.l{stroke:#000;}.m,.n{font-size:24px;}.l{stroke-width:4px;}.n,.o{font-family:HelveticaNeue, 'Helvetica Neue';}.p{font-size:48px;}</style></defs><line class="k" x1="285.79" y1="300.27" x2="268.79" y2="300.27"/><line class="j" x1="285.79" y1="299.77" x2="885.29" y2="299.77"/><line class="k" x1="487.85" y1="599.5" x2="487.85" y2="616.5"/><line class="l" x1="287.85" y1="599.5" x2="287.85" y2="616.5"/><line class="j" x1="487.35" y1="599.5" x2="487.35"/><line class="k" x1="690.85" y1="599.5" x2="690.85" y2="616.5"/><line class="j" x1="690.35" y1="599.5" x2="690.35"/><text class="o" transform="translate(341.42 719.38)"><tspan class="p"><tspan x="0" y="0">Administration bu</tspan><tspan class="c" x="377.9" y="0">r</tspan><tspan x="393.02" y="0">den</tspan></tspan><tspan class="m"><tspan x="0" y="28.8">How much ha</tspan><tspan class="c" x="148.92" y="28.8">r</tspan><tspan x="156.48" y="28.8">dwa</tspan><tspan class="c" x="201.79" y="28.8">r</tspan><tspan x="209.35" y="28.8">d and softwa</tspan><tspan class="c" x="348.91" y="28.8">r</tspan><tspan x="356.47" y="28.8">e does your </tspan></tspan><tspan class="m"><tspan x="0" y="57.6">o</tspan><tspan class="i" x="13.78" y="57.6">r</tspan><tspan x="21.1" y="57.6">ganization itself need to manage?</tspan></tspan></text><text class="o" transform="translate(0 266.86)"><tspan class="p"><tspan x="0" y="0">Elasticity</tspan></tspan><tspan class="m"><tspan x="0" y="28.8">How quickly does </tspan></tspan><tspan class="m"><tspan class="c" x="0" y="57.6">r</tspan><tspan x="7.56" y="57.6">esou</tspan><tspan class="g" x="59.57" y="57.6">r</tspan><tspan x="67.13" y="57.6">ce usage and </tspan></tspan><tspan class="m"><tspan x="0" y="86.4">cost adapt to </tspan></tspan><tspan class="m"><tspan x="0" y="115.2">demand?</tspan></tspan></text><polyline class="l" points="883.01 600 287.35 600 287.35 4.34"/><polygon points="869.76 583.64 867.03 586.57 881.48 600 867.03 613.43 869.76 616.36 887.35 600 869.76 583.64"/><polygon points="303.71 17.59 300.78 20.32 287.35 5.87 273.92 20.32 270.99 17.59 287.35 0 303.71 17.59"/><line class="l" x1="285.85" y1="600.5" x2="268.85" y2="600.5"/><text class="n" transform="translate(315.4 631.53)"><tspan x="0" y="0">“Serverless”</tspan></text><text class="n" transform="translate(720.91 631.53)"><tspan x="0" y="0">On P</tspan><tspan class="c" x="53.81" y="0">r</tspan><tspan x="61.37" y="0">emise</tspan></text><text class="n" transform="translate(536.93 631.53)"><tspan x="0" y="0">Managed</tspan></text><text class="n" transform="translate(268.87 203.35) rotate(-90)"><tspan x="0" y="0">Real Time</tspan></text><text class="n" transform="translate(268.87 526.9) rotate(-90)"><tspan x="0" y="0">P</tspan><tspan class="c" x="15.55" y="0">r</tspan><tspan x="23.11" y="0">e-Allocated</tspan></text><text class="n" transform="translate(522.77 421.14)"><tspan class="d" x="0" y="0">A</tspan><tspan class="f" x="14.98" y="0">WS Elastic </tspan><tspan x="15.24" y="28.8">Compute </tspan><tspan x=".82" y="57.6">Cloud (EC2) </tspan><tspan x="13.92" y="86.4">instances</tspan></text><text class="n" transform="translate(326.31 421.14)"><tspan class="e" x="0" y="0">A</tspan><tspan class="h" x="14.98" y="0">WS Elastic </tspan><tspan x="12.82" y="28.8">Container </tspan><tspan x="-8.05" y="57.6">Service (ECS) </tspan><tspan x="7.6" y="86.4">on Fa</tspan><tspan class="i" x="68.05" y="86.4">r</tspan><tspan x="75.37" y="86.4">gate</tspan></text><text class="n" transform="translate(317.61 146.94)"><tspan class="d" x="0" y="0">A</tspan><tspan class="f" x="14.98" y="0">WS Lambda </tspan><tspan x="21.06" y="28.8">Functions</tspan></text><text class="n" transform="translate(714.96 435.54)"><tspan x="0" y="0">computer left </tspan><tspan x="18.44" y="28.8">running in </tspan><tspan x="15.13" y="57.6">your o</tspan><tspan class="c" x="82.69" y="57.6">f</tspan><tspan x="89.36" y="57.6">fice</tspan></text><path class="b" d="m722.85,403.94c-6.93-21.91-16.14-43.06-27.42-63-11.27-19.94-24.6-38.66-39.69-55.8-15.08-17.14-31.91-32.68-50.12-46.32-18.21-13.64-37.81-25.35-58.37-34.91l3.92-8.09c20.79,10.5,40.45,23.15,58.57,37.67,18.12,14.51,34.7,30.88,49.41,48.73,14.71,17.86,27.55,37.21,38.24,57.64,10.69,20.43,19.23,41.94,25.44,64.07Z"/><polygon class="b" points="564.51 189.99 506 182.56 552.95 218.26 564.51 189.99"/></svg>